<svg xmlns="http://www.w3.org/2000/svg" width="11.586" height="27.049" viewBox="0 0 11.586 27.049"><defs><style>.a{fill:#5e8e98;}</style></defs><g transform="translate(12.081 -0.455) rotate(90)"><g transform="translate(0.455 0.496)"><path class="a" d="M2.378,1.932a6.012,6.012,0,0,1,6.56-.807,5.832,5.832,0,0,1,3.118,5.166q2.9,0,5.79,0,0-2.9,0-5.795c.644,0,1.287,0,1.932,0,0,1.928.006,3.857,0,5.785,1.289.022,2.577,0,3.866.009q0-1.931,0-3.86c.644,0,1.289,0,1.933,0,0,1.287,0,2.574,0,3.863.644,0,1.287,0,1.932,0V8.222c-5.274,0-10.546.008-15.819-.006a5.7,5.7,0,0,1-2.965,3.319,6.008,6.008,0,0,1-4.625.162A5.64,5.64,0,0,1,.7,7.964,5.851,5.851,0,0,1,2.378,1.932Zm3.026.6A3.844,3.844,0,0,0,3.694,9.185,3.9,3.9,0,0,0,8.389,9.5a3.863,3.863,0,0,0,.338-6.162A3.867,3.867,0,0,0,5.4,2.534Z" transform="translate(-0.455 -0.496)"/></g></g></svg>