<svg xmlns="http://www.w3.org/2000/svg" width="23.856" height="27.877" viewBox="0 0 23.856 27.877"><defs><style>.a{fill:#5e8e98;}</style></defs><g transform="translate(-1.453)"><g transform="translate(5.642)"><path class="a" d="M38.8,0h.719a7.711,7.711,0,0,1,7.3,7.949,7.659,7.659,0,0,1-15.292.28A7.5,7.5,0,0,1,33.419,2.6,7.781,7.781,0,0,1,38.8,0Zm-.67,1.493a6.266,6.266,0,0,0-5.1,7.421,6.218,6.218,0,0,0,2.883,4.1,6.136,6.136,0,0,0,4.384.806,6.337,6.337,0,0,0,4.23-2.894,6.287,6.287,0,0,0-2.1-8.6A6.141,6.141,0,0,0,38.13,1.493Z" transform="translate(-31.503)"/></g><path class="a" d="M3.1,123.281a6.73,6.73,0,0,1,4.5-3.3A.7.7,0,0,1,8.336,121c-.134.3-.482.329-.758.4a5.2,5.2,0,0,0-2.917,2.043,10.856,10.856,0,0,0-1.8,6.271q10.519,0,21.039,0a16.527,16.527,0,0,0-.654-3.913,6.588,6.588,0,0,0-3.2-4.084,13.878,13.878,0,0,0-1.447-.5.708.708,0,0,1,.415-1.252,6.344,6.344,0,0,1,3.568,1.873c1.9,2.028,2.563,4.885,2.685,7.591.01.58.224,1.4-.461,1.684H1.97a.8.8,0,0,1-.512-.828A13.646,13.646,0,0,1,3.1,123.281Z" transform="translate(0 -103.236)"/></g></svg>