<svg xmlns="http://www.w3.org/2000/svg" width="22.673" height="27" viewBox="0 0 22.673 27"><defs><style>.a{fill:#5e8e98;}</style></defs><g transform="translate(-0.5 -0.668)"><g transform="translate(0.5 0.668)"><path class="a" d="M8.672,1.423A7.93,7.93,0,0,1,19.991,8.57a.84.84,0,0,1-1.225.763c-.51-.245-.428-.882-.5-1.346a6.079,6.079,0,0,0-1.53-3.543A6.237,6.237,0,0,0,5.877,7.813c-.115,1.1-.036,2.212-.056,3.316,5.193.01,10.388-.008,15.584.008A1.828,1.828,0,0,1,23.165,13c.01,4.221,0,8.445,0,12.668a1.915,1.915,0,0,1-1.953,2q-9.395.011-18.791,0A1.939,1.939,0,0,1,.5,26.067V12.726a1.93,1.93,0,0,1,1.269-1.52,13.977,13.977,0,0,1,2.371-.073,20.8,20.8,0,0,1,.226-4.449A7.974,7.974,0,0,1,8.672,1.423ZM2.195,12.818q-.04,6.579,0,13.161c6.418.025,12.838,0,19.257.013.036-.429.046-.863.042-1.294-.031-3.963.038-7.927-.035-11.89C15.039,12.817,8.617,12.8,2.195,12.818Z" transform="translate(-0.5 -0.668)"/></g><path class="a" d="M50.087,78.845a1.741,1.741,0,0,1,2.864-.163,1.782,1.782,0,0,1-.566,2.582c-.038,1.148.031,2.3-.031,3.445a.845.845,0,0,1-1.591.171c-.153-1.206-.017-2.433-.071-3.646A1.831,1.831,0,0,1,50.087,78.845Z" transform="translate(-39.894 -62.513)"/></g></svg>